<svg width="334" height="334" viewBox="0 0 334 334" fill="none" fill-opacity="0.2" xmlns="http://www.w3.org/2000/svg">
<rect x="145.495" y="126.134" width="72" height="100" rx="8" transform="rotate(2.5 145.495 126.134)" fill="#EEEEEE" fill-opacity="0.5"/>
<rect x="146.45" y="127.177" width="70" height="98" rx="7" transform="rotate(2.5 146.45 127.177)" stroke="#999999" stroke-opacity="0.5" stroke-width="2"/>
<rect x="105.958" y="122.176" width="72" height="100" rx="8" transform="rotate(-7.5 105.958 122.176)" fill="#ECECEC"/>
<rect x="104.836" y="121.315" width="74" height="102" rx="9" transform="rotate(-7.5 104.836 121.315)" stroke="#999999" stroke-opacity="0.5" stroke-width="2"/>
<path d="M107.002 130.107C106.425 125.727 109.509 121.708 113.889 121.132L169.41 113.822C173.791 113.245 177.809 116.329 178.386 120.71L180.344 135.581L108.96 144.979L107.002 130.107Z" fill="#EEEEEE" fill-opacity="0.5"/>
<rect x="192.866" y="115.777" width="3" height="10" rx="1.5" transform="rotate(82.5 192.866 115.777)" fill="#999999" fill-opacity="0.5"/>
<rect x="165.47" y="99.2115" width="3" height="10" rx="1.5" transform="rotate(-7.5 165.47 99.2115)" fill="#999999" fill-opacity="0.5"/>
<rect x="183.047" y="101.941" width="3" height="10" rx="1.5" transform="rotate(37.5 183.047 101.941)" fill="#999999" fill-opacity="0.5"/>
<rect x="116.422" y="148.031" width="58" height="4" rx="2" transform="rotate(-7.5 116.422 148.031)" fill="#DCDCDC" fill-opacity="0.5"/>
<rect x="119.033" y="167.86" width="58" height="4" rx="2" transform="rotate(-7.5 119.033 167.86)" fill="#DCDCDC" fill-opacity="0.5"/>
<rect x="121.643" y="187.689" width="58" height="4" rx="2" transform="rotate(-7.5 121.643 187.689)" fill="#DCDCDC" fill-opacity="0.5"/>
<rect x="117.466" y="155.963" width="21" height="4" rx="2" transform="rotate(-7.5 117.466 155.963)" fill="#EEEEEE" fill-opacity="0.5"/>
<rect x="120.077" y="175.792" width="21" height="4" rx="2" transform="rotate(-7.5 120.077 175.792)" fill="#EEEEEE" fill-opacity="0.5"/>
<rect x="122.688" y="195.621" width="21" height="4" rx="2" transform="rotate(-7.5 122.688 195.621)" fill="#EEEEEE" fill-opacity="0.5"/>
</svg>
